<svg class="icon icon-youtube" width="24" height="17" viewBox="0 0 24 17" fill="none" xmlns="http://www.w3.org/2000/svg">
<path d="M23.119 2.63595C23.6375 4.4509 23.6375 8.34007 23.6375 8.34007C23.6375 8.34007 23.6375 12.186 23.119 14.0442C22.8597 15.0813 22.0386 15.8591 21.0447 16.1184C19.1866 16.5938 11.8404 16.5938 11.8404 16.5938C11.8404 16.5938 4.45094 16.5938 2.59278 16.1184C1.59888 15.8591 0.777836 15.0813 0.518558 14.0442C1.61678e-06 12.186 1.61678e-06 8.34007 1.61678e-06 8.34007C1.61678e-06 8.34007 1.61678e-06 4.4509 0.518558 2.63595C0.777836 1.59884 1.59888 0.77779 2.59278 0.518512C4.45094 -4.43459e-05 11.8404 -4.43459e-05 11.8404 -4.43459e-05C11.8404 -4.43459e-05 19.1866 -4.43459e-05 21.0447 0.518512C22.0386 0.77779 22.8597 1.59884 23.119 2.63595ZM9.42044 11.8403L15.5567 8.34007L9.42044 4.83981V11.8403Z" fill="white"/>
</svg>
