<svg class="icon icon-linkedin" width="20" height="20" viewBox="0 0 20 20" fill="none" xmlns="http://www.w3.org/2000/svg">
<path d="M17.9766 -4.80413e-05C18.7112 -4.80413e-05 19.3594 0.648147 19.3594 1.42598V17.9766C19.3594 18.7544 18.7112 19.3594 17.9766 19.3594H1.3396C0.604982 19.3594 0 18.7544 0 17.9766V1.42598C0 0.648147 0.604982 -4.80413e-05 1.3396 -4.80413e-05H17.9766ZM5.83376 16.5937V7.38938H2.9817V16.5937H5.83376ZM4.40773 6.09299C5.3152 6.09299 6.04982 5.35836 6.04982 4.45089C6.04982 3.54342 5.3152 2.76558 4.40773 2.76558C3.45704 2.76558 2.72242 3.54342 2.72242 4.45089C2.72242 5.35836 3.45704 6.09299 4.40773 6.09299ZM16.5938 16.5937V11.5378C16.5938 9.07468 16.032 7.1301 13.1368 7.1301C11.7539 7.1301 10.8033 7.90793 10.4143 8.64255H10.3711V7.38938H7.6487V16.5937H10.5008V12.0564C10.5008 10.8464 10.7168 9.67967 12.2293 9.67967C13.6985 9.67967 13.6985 11.0625 13.6985 12.0996V16.5937H16.5938Z" fill="white"/>
</svg>
