<svg class="icon icon-facebook" width="22" height="22" viewBox="0 0 22 22" fill="none" xmlns="http://www.w3.org/2000/svg">
<path d="M21.4337 10.7168C21.4337 16.0752 17.5013 20.5261 12.3589 21.304V13.8281H14.8653L15.3406 10.7168H12.3589V8.72898C12.3589 7.86472 12.7911 7.04367 14.1307 7.04367H15.4703V4.40768C15.4703 4.40768 14.2603 4.19161 13.0503 4.19161C10.6304 4.19161 9.03152 5.70407 9.03152 8.38327V10.7168H6.3091V13.8281H9.03152V21.304C3.88917 20.5261 9.23872e-07 16.0752 9.23872e-07 10.7168C9.23872e-07 4.79659 4.79664 -5.0813e-05 10.7168 -5.0813e-05C16.637 -5.0813e-05 21.4337 4.79659 21.4337 10.7168Z" fill="white"/>
</svg>
