<svg xmlns="http://www.w3.org/2000/svg" width="14" height="14" viewBox="0 0 14 14" fill="none">
<g clip-path="url(#clip0_164_42)">
<path d="M4.66475 12.8283C4.98678 12.8283 5.24784 12.5672 5.24784 12.2452C5.24784 11.9232 4.98678 11.6621 4.66475 11.6621C4.34272 11.6621 4.08167 11.9232 4.08167 12.2452C4.08167 12.5672 4.34272 12.8283 4.66475 12.8283Z" stroke="white" stroke-width="1.16618" stroke-linecap="round" stroke-linejoin="round"/>
<path d="M11.0787 12.8283C11.4007 12.8283 11.6618 12.5672 11.6618 12.2452C11.6618 11.9232 11.4007 11.6621 11.0787 11.6621C10.7567 11.6621 10.4956 11.9232 10.4956 12.2452C10.4956 12.5672 10.7567 12.8283 11.0787 12.8283Z" stroke="white" stroke-width="1.16618" stroke-linecap="round" stroke-linejoin="round"/>
<path d="M1.19531 1.19531H2.36149L3.9125 8.43726C3.9694 8.70248 4.11697 8.93957 4.32982 9.10773C4.54267 9.27588 4.80748 9.36457 5.07868 9.35854H10.7813C11.0467 9.35811 11.304 9.26716 11.5107 9.10072C11.7175 8.93427 11.8612 8.70229 11.9183 8.44309L12.8804 4.11075H2.98539" stroke="white" stroke-width="1.16618" stroke-linecap="round" stroke-linejoin="round"/>
</g>
<defs>
<clipPath id="clip0_164_42">
<rect width="13.9941" height="13.9941" fill="white"/>
</clipPath>
</defs>
</svg>