<svg class="icon icon-instagram" width="20" height="20" viewBox="0 0 20 20" fill="none" xmlns="http://www.w3.org/2000/svg">
<path d="M9.72293 4.71017C12.4453 4.71017 14.6924 6.95725 14.6924 9.67967C14.6924 12.4453 12.4453 14.6492 9.72293 14.6492C6.95729 14.6492 4.75343 12.4453 4.75343 9.67967C4.75343 6.95725 6.95729 4.71017 9.72293 4.71017ZM9.72293 12.9206C11.4947 12.9206 12.9207 11.4946 12.9207 9.67967C12.9207 7.90793 11.4947 6.4819 9.72293 6.4819C7.90798 6.4819 6.48195 7.90793 6.48195 9.67967C6.48195 11.4946 7.95119 12.9206 9.72293 12.9206ZM16.032 4.53732C16.032 5.18551 15.5135 5.70407 14.8653 5.70407C14.2171 5.70407 13.6985 5.18551 13.6985 4.53732C13.6985 3.88912 14.2171 3.37057 14.8653 3.37057C15.5135 3.37057 16.032 3.88912 16.032 4.53732ZM19.3162 5.70407C19.4026 7.30295 19.4026 12.0996 19.3162 13.6985C19.2298 15.2541 18.8841 16.5937 17.7605 17.7605C16.637 18.884 15.2542 19.2297 13.6985 19.3162C12.0996 19.4026 7.303 19.4026 5.70412 19.3162C4.14845 19.2297 2.80885 18.884 1.64209 17.7605C0.518556 16.5937 0.172852 15.2541 0.0864259 13.6985C-1.15484e-07 12.0996 -1.15484e-07 7.30295 0.0864259 5.70407C0.172852 4.1484 0.518556 2.76558 1.64209 1.64205C2.80885 0.518508 4.14845 0.172804 5.70412 0.086378C7.303 -4.80413e-05 12.0996 -4.80413e-05 13.6985 0.086378C15.2542 0.172804 16.637 0.518508 17.7605 1.64205C18.8841 2.76558 19.2298 4.1484 19.3162 5.70407ZM17.242 15.3838C17.7605 14.1306 17.6309 11.1057 17.6309 9.67967C17.6309 8.29685 17.7605 5.27194 17.242 3.97555C16.8963 3.1545 16.2481 2.46309 15.427 2.1606C14.1307 1.64205 11.1057 1.77169 9.72293 1.77169C8.2969 1.77169 5.27199 1.64205 4.01881 2.1606C3.15455 2.50631 2.50635 3.1545 2.16065 3.97555C1.64209 5.27194 1.77173 8.29685 1.77173 9.67967C1.77173 11.1057 1.64209 14.1306 2.16065 15.3838C2.50635 16.248 3.15455 16.8962 4.01881 17.2419C5.27199 17.7605 8.2969 17.6309 9.72293 17.6309C11.1057 17.6309 14.1307 17.7605 15.427 17.2419C16.2481 16.8962 16.9395 16.248 17.242 15.3838Z" fill="white"/>
</svg>
