
<svg class="icon icon-whatsapp" width="20" height="20" viewBox="0 0 20 20" fill="none" xmlns="http://www.w3.org/2000/svg">
<path d="M16.4209 2.85201C18.2359 4.66696 19.3594 7.04367 19.3594 9.63645C19.3594 14.9084 14.9517 19.2297 9.6365 19.2297C8.03762 19.2297 6.48195 18.7976 5.05592 18.063L0 19.3594L1.3396 14.3899C0.518556 12.9639 0.043213 11.3218 0.043213 9.59324C0.043213 4.32125 4.36451 -4.80413e-05 9.6365 -4.80413e-05C12.2293 -4.80413e-05 14.6492 1.03706 16.4209 2.85201ZM9.6365 17.5876C14.0442 17.5876 17.7173 14.001 17.7173 9.63645C17.7173 7.4758 16.8099 5.488 15.2974 3.97555C13.7849 2.46309 11.7972 1.64205 9.67971 1.64205C5.27199 1.64205 1.68531 5.22873 1.68531 9.59324C1.68531 11.1057 2.11744 12.5749 2.89527 13.8713L3.11134 14.1738L2.29029 17.1123L5.3152 16.2913L5.57448 16.4641C6.82765 17.1987 8.21047 17.5876 9.6365 17.5876ZM14.0442 11.6243C14.2603 11.7539 14.4331 11.7971 14.4764 11.9267C14.5628 12.0132 14.5628 12.4885 14.3467 13.0503C14.1307 13.612 13.18 14.1306 12.7478 14.1738C11.97 14.3035 11.365 14.2602 9.85257 13.5688C7.43264 12.5317 5.87697 10.1118 5.74733 9.98216C5.61769 9.8093 4.79664 8.68577 4.79664 7.4758C4.79664 6.30905 5.40163 5.74728 5.61769 5.488C5.83376 5.22873 6.09303 5.18551 6.26589 5.18551C6.39552 5.18551 6.56838 5.18551 6.69802 5.18551C6.87087 5.18551 7.04372 5.1423 7.25979 5.61764C7.43264 6.09299 7.95119 7.25974 7.99441 7.38938C8.03762 7.51902 8.08083 7.64865 7.99441 7.82151C7.56228 8.72898 7.04372 8.68577 7.303 9.1179C8.25368 10.7168 9.16116 11.2785 10.5872 11.97C10.8033 12.0996 10.9329 12.0564 11.1057 11.9267C11.2354 11.7539 11.7107 11.1921 11.8404 10.9761C12.0132 10.7168 12.1861 10.76 12.4021 10.8464C12.6182 10.9328 13.7849 11.4946 14.0442 11.6243Z" fill="white"/>
</svg>
