<svg class="icon icon-search" width="23" height="23" viewBox="0 0 23 23" fill="none" xmlns="http://www.w3.org/2000/svg">
<path d="M10.3274 2.85683e-06C7.58984 0.00458928 4.96568 1.09341 3.0299 3.02792C1.09413 4.96242 0.00458944 7.58486 0 10.3207C0.00228799 13.0588 1.09054 15.6843 3.02631 17.6221C4.96209 19.5598 7.58754 20.6518 10.3274 20.6587C12.7574 20.6587 14.9965 19.8044 16.7669 18.3907L21.0671 22.6881C21.2849 22.8905 21.5728 23.0007 21.8702 22.9955C22.1677 22.9903 22.4515 22.8701 22.6621 22.6602C22.8727 22.4502 22.9938 22.1669 22.9998 21.8697C23.0058 21.5725 22.8963 21.2845 22.6943 21.0663L18.3941 16.7646C19.8628 14.9392 20.6635 12.6672 20.6635 10.325C20.6635 4.63562 16.0205 2.85683e-06 10.3274 2.85683e-06ZM10.3274 2.2983C14.7795 2.2983 18.3637 5.87584 18.3637 10.3207C18.3637 14.7655 14.7795 18.3647 10.3274 18.3647C5.87535 18.3647 2.29547 14.7785 2.29547 10.3293C2.29547 5.88017 5.87535 2.2983 10.3274 2.2983Z" fill="#0F172A"/>
</svg>
